<?xml version="1.0" encoding="UTF-8" standalone="no"?>
<!DOCTYPE svg PUBLIC "-//W3C//DTD SVG 1.1//EN" "http://www.w3.org/Graphics/SVG/1.1/DTD/svg11.dtd">
<svg width="100%" height="100%" viewBox="0 0 512 512" version="1.1" xmlns="http://www.w3.org/2000/svg" xmlns:xlink="http://www.w3.org/1999/xlink" xml:space="preserve" xmlns:serif="http://www.serif.com/" style="fill-rule:evenodd;clip-rule:evenodd;stroke-linecap:round;stroke-linejoin:round;stroke-miterlimit:1.5;">
    <g transform="matrix(1,0,0,1,36.5257,-13.4568)">
        <path d="M179.392,407.343C172.951,413.209 163.656,414.722 155.687,411.201C147.719,407.681 142.578,399.79 142.578,391.078L142.578,123.537C142.578,114.65 147.932,106.638 156.143,103.236C164.354,99.835 173.805,101.715 180.09,108C222.448,150.358 289.452,217.362 320.121,248.03C324.372,252.282 326.699,258.089 326.558,264.1C326.418,270.111 323.823,275.803 319.378,279.852C288.209,308.239 221.371,369.111 179.392,407.343Z" style="stroke:black;stroke-width:1px;"/>
    </g>
</svg>
